<svg xmlns="http://www.w3.org/2000/svg" viewBox="0 0 512 512" role="img" aria-label="OpsPilot AI">
  <defs>
    <linearGradient id="bg" x1="72" y1="56" x2="440" y2="456" gradientUnits="userSpaceOnUse">
      <stop offset="0" stop-color="#2563EB"/>
      <stop offset="0.55" stop-color="#14B8A6"/>
      <stop offset="1" stop-color="#22C55E"/>
    </linearGradient>
    <linearGradient id="ring" x1="124" y1="100" x2="390" y2="405" gradientUnits="userSpaceOnUse">
      <stop offset="0" stop-color="#FFFFFF" stop-opacity=".85"/>
      <stop offset=".55" stop-color="#BAE6FD" stop-opacity=".45"/>
      <stop offset="1" stop-color="#FFFFFF" stop-opacity=".10"/>
    </linearGradient>
    <filter id="shadow" x="-20%" y="-20%" width="140%" height="140%">
      <feDropShadow dx="0" dy="28" stdDeviation="28" flood-color="#020617" flood-opacity=".35"/>
    </filter>
  </defs>

  <rect x="42" y="42" width="428" height="428" rx="116" fill="#0F172A"/>
  <rect x="86" y="86" width="340" height="340" rx="94" fill="url(#bg)" filter="url(#shadow)"/>
  <circle cx="256" cy="256" r="104" fill="none" stroke="url(#ring)" stroke-width="14"/>
  <path d="M159 256c0-54 39-93 93-93 19 0 36 5 51 14" fill="none" stroke="#FFFFFF" stroke-opacity=".30" stroke-width="12" stroke-linecap="round"/>
  <path d="M356 253c0 54-40 96-94 96-22 0-42-7-58-19" fill="none" stroke="#020617" stroke-opacity=".22" stroke-width="12" stroke-linecap="round"/>
  <text x="256" y="286" text-anchor="middle"
        font-family="Inter, Arial, Helvetica, sans-serif"
        font-weight="950" font-size="106" letter-spacing="-9"
        fill="#08111F">OP</text>
  <circle cx="365" cy="151" r="10" fill="#FFFFFF" opacity=".75"/>
  <circle cx="137" cy="351" r="8" fill="#FFFFFF" opacity=".45"/>
</svg>